<svg height="15" viewBox="0 0 15 15" width="15" xmlns="http://www.w3.org/2000/svg">
  <path
    d="M11.518 12.1536H5.11439L5.65099 13.4653C5.76513 13.7452 5.68164 14.0652 5.44591 14.2543C5.20987 14.4433 4.87771 14.4538 4.62942 14.2813L0.293431 11.2696C0.103493 11.1377 -0.00678673 10.9184 0.000324107 10.6874C0.00740429 10.4565 0.130924 10.2446 0.328587 10.1247L4.86251 7.37158C5.12049 7.21501 5.45038 7.24612 5.67416 7.44817C5.89827 7.65019 5.9631 7.97879 5.83412 8.25127L5.23819 9.51197H11.518C11.9814 9.51197 12.3583 9.12774 12.3583 8.66437V4.07138C12.3583 3.60801 11.9814 3.238 11.518 3.238H4.56836C3.94843 3.238 3.44586 2.73546 3.44586 2.11553V1.71886C3.44586 1.09887 3.94843 0.596329 4.56836 0.596329H11.518C13.438 0.596329 15 2.15127 15 4.07141V8.66434C15 10.5845 13.438 12.1536 11.518 12.1536Z"
    fill="currentColor"/>
</svg>
